<?xml version="1.0" encoding="utf-8"?>
<!-- Generator: Adobe Illustrator 27.1.0, SVG Export Plug-In . SVG Version: 6.00 Build 0)  -->
<svg version="1.1" id="Capa_1" xmlns="http://www.w3.org/2000/svg" xmlns:xlink="http://www.w3.org/1999/xlink" x="0px" y="0px"
	 viewBox="0 0 512 512" style="enable-background:new 0 0 512 512;" xml:space="preserve">
<style type="text/css">
	.st0{fill:#FFAC2F;}
</style>
<path class="st0" d="M475.07,0H36.93C16.53,0,0,16.53,0,36.93v438.15C0,495.47,16.53,512,36.93,512h438.15
	c20.39,0,36.93-16.53,36.93-36.93V36.93C512,16.53,495.47,0,475.07,0z M384.25,195.96v34.61c-16.32,0.01-32.18-3.19-47.14-9.5
	c-9.62-4.06-18.58-9.29-26.77-15.61L310.58,312c-0.1,23.99-9.59,46.53-26.77,63.51c-13.98,13.82-31.7,22.61-50.9,25.45
	c-4.51,0.67-9.1,1.01-13.75,1.01c-20.55,0-40.07-6.66-56.03-18.94c-3-2.31-5.88-4.82-8.61-7.52c-18.62-18.4-28.22-43.34-26.6-69.58
	c1.23-19.97,9.23-39.02,22.56-53.95c17.63-19.75,42.31-30.72,68.68-30.72c4.64,0,9.23,0.35,13.75,1.02v12.8v35.6
	c-4.28-1.41-8.85-2.19-13.6-2.19c-24.1,0-43.6,19.66-43.24,43.78c0.23,15.43,8.66,28.92,21.09,36.36
	c5.84,3.49,12.56,5.66,19.74,6.05c5.62,0.31,11.02-0.47,16.01-2.12c17.22-5.69,29.64-21.86,29.64-40.93l0.06-71.35V110.03h47.67
	c0.05,4.72,0.52,9.33,1.42,13.8c3.6,18.07,13.79,33.76,27.97,44.45c12.36,9.33,27.76,14.85,44.45,14.85c0.01,0,0.15,0,0.14-0.01
	L384.25,195.96L384.25,195.96z"/>
</svg>
