<?xml version="1.0" encoding="utf-8"?>
<!-- Generator: Adobe Illustrator 25.4.1, SVG Export Plug-In . SVG Version: 6.00 Build 0)  -->
<svg version="1.1" id="Capa_1" xmlns="http://www.w3.org/2000/svg" xmlns:xlink="http://www.w3.org/1999/xlink" x="0px" y="0px"
	 viewBox="0 0 150 150" style="enable-background:new 0 0 150 150;" xml:space="preserve">
<style type="text/css">
	.st0{fill:#32CCFF;}
	.st1{opacity:9.000000e-02;}
	.st2{opacity:0.3;}
	.st3{clip-path:url(#SVGID_00000008119877273302076510000004418859507977008538_);}
	.st4{clip-path:url(#SVGID_00000033366738213789886160000012645050788925462696_);fill:#2B5860;}
	.st5{clip-path:url(#SVGID_00000178177299997748408690000000126929352584541886_);}
	.st6{clip-path:url(#SVGID_00000140734400961518578330000015405100433418508443_);fill:#2B5860;}
	
		.st7{clip-path:url(#SVGID_00000141430455534037737110000013694911636259999402_);fill:url(#SVGID_00000110462792194510179120000010751253268249927067_);}
	.st8{fill:#3D3D3D;}
	.st9{fill:#515252;}
	.st10{fill:#A83229;}
	.st11{fill:#4A9BF6;}
	.st12{fill:#D3D9F2;}
	.st13{fill:#FFDF64;}
	.st14{fill:#F7F7FF;}
	.st15{fill:#28BE77;}
	.st16{fill:#D73D3F;}
	.st17{fill:#3B7CC4;}
	.st18{fill:#AEB2D4;}
	.st19{fill:#B8BCE0;}
	.st20{fill:#FFB844;}
	.st21{fill:#CACFE8;}
	.st22{fill:#1FA463;}
	.st23{fill:#91323C;}
</style>
<g id="_03-google_map">
	<circle class="st10" cx="106.5" cy="43.5" r="14.5"/>
	<path class="st11" d="M96.8,150H14.5l41.1-41.1L96.8,150z"/>
	<path class="st12" d="M150,14.5v121c0,8-6.5,14.5-14.5,14.5h-9.7L70.2,94.4l18.4-18.4c5.6,7.3,11.5,14.2,17.9,20.8
		c0,0,33.9-34.5,33.9-53.2c0-5.4-1.3-10.8-3.8-15.6L150,14.5z"/>
	<path class="st13" d="M150,14.5L136.5,28c-3.2-6.2-8.3-11.3-14.5-14.5L135.5,0C143.5,0,150,6.5,150,14.5z"/>
	<path class="st14" d="M125.8,150h-29l-41.1-41.1l14.5-14.5L125.8,150z"/>
	<path class="st13" d="M88.6,75.9L70.2,94.4l-14.5,14.5L14.5,150c-8,0-14.5-6.5-14.5-14.5l77.2-77.2C80.4,64.5,84.3,70.4,88.6,75.9z
		"/>
	<path class="st15" d="M135.5,0L122,13.5c-16.6-8.6-37-2.1-45.6,14.5c-2.5,4.8-3.8,10.2-3.8,15.6c0.4,5.2,1.9,10.3,4.6,14.8L0,135.5
		v-121C0,6.5,6.5,0,14.5,0H135.5z"/>
	<path class="st16" d="M136.5,28c2.5,4.8,3.8,10.1,3.8,15.6c0,18.7-33.9,53.2-33.9,53.2c-6.3-6.6-12.3-13.6-17.9-20.8
		c-4.3-5.5-8.1-11.4-11.4-17.6c-2.6-4.5-4.2-9.6-4.6-14.8c0-18.7,15.2-33.9,33.9-33.8C119.1,9.7,130.7,16.8,136.5,28L136.5,28z
		 M121,43.5c0-8-6.5-14.5-14.5-14.5s-14.5,6.5-14.5,14.5s6.5,14.5,14.5,14.5S121,51.6,121,43.5z"/>
	<path class="st17" d="M24.2,140.3l-9.7,9.7h82.3l-9.7-9.7H24.2z"/>
	<path class="st18" d="M135.5,140.3h-19.4l9.7,9.7h9.7c8,0,14.5-6.5,14.5-14.5v-9.7C150,133.8,143.5,140.3,135.5,140.3z"/>
	<path class="st19" d="M147.9,16.7c1.4,2.3,2.1,4.9,2.1,7.5v-9.7L147.9,16.7z"/>
	<path class="st20" d="M135.5,9.7c5.1,0,9.8,2.6,12.4,7l2.1-2.1c0-8-6.5-14.5-14.5-14.5l-9.7,9.7H135.5z"/>
	<path class="st21" d="M87.1,140.3l9.7,9.7h29l-9.7-9.7H87.1z"/>
	<path class="st20" d="M14.5,140.3c-5.1,0-9.8-2.6-12.4-7L0,135.5c0,8,6.5,14.5,14.5,14.5l0,0l9.7-9.7H14.5z"/>
	<path class="st22" d="M0,125.8v9.7l2.1-2.1C0.7,131.1,0,128.5,0,125.8z"/>
	<path class="st22" d="M14.5,9.7h111.3l9.7-9.7h-121C6.5,0,0,6.5,0,14.5v9.7C0,16.2,6.5,9.7,14.5,9.7z"/>
	<path class="st14" d="M29,50.8C17,50.8,7.3,41.1,7.3,29C7.3,17,17,7.3,29,7.3c6.6,0,12.9,3,17,8.2l-7.6,6c-4.2-5.2-11.8-6-17-1.9
		s-6,11.8-1.9,17s11.8,6,17,1.9c1.5-1.2,2.7-2.8,3.5-4.6H29v-9.7H46c2.7,0,4.8,2.2,4.8,4.8C50.8,41.1,41.1,50.8,29,50.8z"/>
	<path class="st23" d="M106.5,38.7c6.1,0,11.6,3.9,13.7,9.7c2.7-7.5-1.2-15.9-8.8-18.6c-7.5-2.7-15.9,1.2-18.6,8.8
		c-1.1,3.2-1.1,6.6,0,9.8C94.8,42.6,100.3,38.7,106.5,38.7L106.5,38.7z"/>
	<path class="st22" d="M73.1,47.7c-0.3,1.8-0.5,3.7-0.5,5.5c0.1,2.8,0.6,5.5,1.6,8.1l3-3C75.3,55,74,51.4,73.1,47.7L73.1,47.7z"/>
	<path class="st18" d="M139.8,47.7c-4.1,19.2-33.4,49-33.4,49c-6.3-6.6-12.3-13.6-17.9-20.8L84.5,80c1.3,1.9,2.7,3.8,4.1,5.6
		c5.6,7.3,11.5,14.2,17.9,20.8c0,0,33.9-34.5,33.9-53.2C140.3,51.4,140.1,49.6,139.8,47.7z"/>
	<path class="st20" d="M77.2,58.3l-3,3c0.8,2.3,1.8,4.6,3,6.7c2.2,4.2,4.6,8.2,7.4,12l4.1-4.1C84.3,70.4,80.4,64.5,77.2,58.3
		L77.2,58.3z"/>
</g>
</svg>
