<?xml version="1.0" encoding="utf-8"?>
<!-- Generator: Adobe Illustrator 25.4.1, SVG Export Plug-In . SVG Version: 6.00 Build 0)  -->
<svg version="1.1" id="Capa_1" xmlns="http://www.w3.org/2000/svg" xmlns:xlink="http://www.w3.org/1999/xlink" x="0px" y="0px"
	 viewBox="0 0 150 150" style="enable-background:new 0 0 150 150;" xml:space="preserve">
<style type="text/css">
	.st0{fill:#32CCFF;}
	.st1{opacity:9.000000e-02;}
	.st2{opacity:0.3;}
	.st3{clip-path:url(#SVGID_00000026157085113307607490000002190037439146851211_);}
	.st4{clip-path:url(#SVGID_00000002370330122223168480000005658407435923411362_);fill:#2B5860;}
	.st5{clip-path:url(#SVGID_00000020370124368669180140000007920869904305650076_);}
	.st6{clip-path:url(#SVGID_00000088125230490565738240000006407332812896828826_);fill:#2B5860;}
	
		.st7{clip-path:url(#SVGID_00000089543663058489666550000003397429128503718061_);fill:url(#SVGID_00000090291291597090430400000006410443871069777281_);}
	.st8{fill:#3D3D3D;}
	.st9{fill:#515252;}
	.st10{fill:#A83229;}
	.st11{fill:#4A9BF6;}
	.st12{fill:#D3D9F2;}
	.st13{fill:#FFDF64;}
	.st14{fill:#F7F7FF;}
	.st15{fill:#28BE77;}
	.st16{fill:#D73D3F;}
	.st17{fill:#3B7CC4;}
	.st18{fill:#AEB2D4;}
	.st19{fill:#B8BCE0;}
	.st20{fill:#FFB844;}
	.st21{fill:#CACFE8;}
	.st22{fill:#1FA463;}
	.st23{fill:#91323C;}
</style>
<g>
	<path class="st0" d="M135.5,150h-121c-8,0-14.5-6.5-14.5-14.5v-121C0,6.5,6.5,0,14.5,0h121c8,0,14.5,6.5,14.5,14.5v121
		C150,143.5,143.5,150,135.5,150z"/>
	<g id="_03-google_map_00000067212087268126336430000012337613390383877815_" class="st1">
		<path d="M24.2,140.3l-9.7,9.7h82.3l-9.7-9.7H24.2z"/>
		<path d="M135.5,140.3h-19.4l9.7,9.7h9.7c8,0,14.5-6.5,14.5-14.5v-9.7C150,133.8,143.5,140.3,135.5,140.3z"/>
		<path d="M147.9,16.7c1.4,2.3,2.1,4.9,2.1,7.5v-9.7L147.9,16.7z"/>
		<path d="M135.5,9.7c5.1,0,9.8,2.6,12.4,7l2.1-2.1c0-8-6.5-14.5-14.5-14.5l-9.7,9.7H135.5z"/>
		<path d="M87.1,140.3l9.7,9.7h29l-9.7-9.7H87.1z"/>
		<path d="M14.5,140.3c-5.1,0-9.8-2.6-12.4-7L0,135.5c0,8,6.5,14.5,14.5,14.5l0,0l9.7-9.7H14.5z"/>
		<path d="M0,125.8v9.7l2.1-2.1C0.7,131.1,0,128.5,0,125.8z"/>
		<path d="M14.5,9.7h111.3l9.7-9.7h-121C6.5,0,0,6.5,0,14.5v9.7C0,16.2,6.5,9.7,14.5,9.7z"/>
	</g>
	<g>
		<g class="st2">
			<g>
				<defs>
					<rect id="SVGID_1_" x="81.9" y="118.5" width="23.5" height="4.8"/>
				</defs>
				<clipPath id="SVGID_00000127002860900253937900000015355683387167871886_">
					<use xlink:href="#SVGID_1_"  style="overflow:visible;"/>
				</clipPath>
				<g style="clip-path:url(#SVGID_00000127002860900253937900000015355683387167871886_);">
					<defs>
						<rect id="SVGID_00000070080546829327109210000004278047900609242519_" x="81.9" y="118.5" width="23.5" height="4.8"/>
					</defs>
					<clipPath id="SVGID_00000161607517574240163820000015017534904222272909_">
						<use xlink:href="#SVGID_00000070080546829327109210000004278047900609242519_"  style="overflow:visible;"/>
					</clipPath>
					<path style="clip-path:url(#SVGID_00000161607517574240163820000015017534904222272909_);fill:#2B5860;" d="M105.4,120.9
						c0,1.3-5.3,2.4-11.8,2.4c-6.5,0-11.8-1.1-11.8-2.4c0-1.3,5.3-2.4,11.8-2.4C100.1,118.5,105.4,119.6,105.4,120.9"/>
				</g>
			</g>
		</g>
		<g class="st2">
			<g>
				<defs>
					<rect id="SVGID_00000152960082686461309250000000034640981408861113_" x="42.6" y="118.5" width="23.5" height="4.8"/>
				</defs>
				<clipPath id="SVGID_00000010277180336694746040000009091613296261901491_">
					<use xlink:href="#SVGID_00000152960082686461309250000000034640981408861113_"  style="overflow:visible;"/>
				</clipPath>
				<g style="clip-path:url(#SVGID_00000010277180336694746040000009091613296261901491_);">
					<defs>
						<rect id="SVGID_00000044170984354519947270000000636910001260670908_" x="42.6" y="118.5" width="23.5" height="4.8"/>
					</defs>
					<clipPath id="SVGID_00000161611931909623260060000001606376288589266055_">
						<use xlink:href="#SVGID_00000044170984354519947270000000636910001260670908_"  style="overflow:visible;"/>
					</clipPath>
					<path style="clip-path:url(#SVGID_00000161611931909623260060000001606376288589266055_);fill:#2B5860;" d="M66.1,120.9
						c0,1.3-5.3,2.4-11.8,2.4c-6.5,0-11.8-1.1-11.8-2.4c0-1.3,5.3-2.4,11.8-2.4C60.9,118.5,66.1,119.6,66.1,120.9"/>
				</g>
			</g>
		</g>
		<g>
			<defs>
				<path id="SVGID_00000035502181213790615390000006303900915304065704_" d="M75.9,29.9c-8.2,1.1-16.2,4.5-22.6,9.6
					c-7.1,5.6-11.7,12.9-13.3,20.9c-0.5,2.4-0.7,5.1-0.9,7.9c-0.8,10.9-2,17.5-10.9,17.5c-1,0-2,0.6-2.5,1.5c-0.5,0.9-0.4,2,0.3,2.9
					C38,106.1,58.7,108,73.2,108c0.4,0,0.7,0,1.1,0c0.3,0,0.5,0,0.8,0c0.4,0,0.8,0,1.3,0c0.5,0,1,0,1.5,0c6.8,0,13.9-0.3,20.3-2.7
					c11.3-4.2,20.9-13.7,24.3-24.2c3.9-11.8,2.1-23.8-5.1-33.7c-8-11-21.7-17.9-35.7-17.9C79.8,29.5,77.8,29.6,75.9,29.9"/>
			</defs>
			<clipPath id="SVGID_00000135656114036718576270000013577366346909236639_">
				<use xlink:href="#SVGID_00000035502181213790615390000006303900915304065704_"  style="overflow:visible;"/>
			</clipPath>
			
				<radialGradient id="SVGID_00000152953387338242024170000011477250429115083406_" cx="-394.119" cy="477.6509" r="1.5937" gradientTransform="matrix(-0.2726 46.2267 62.988 0.3715 -30108.2637 18086.4727)" gradientUnits="userSpaceOnUse">
				<stop  offset="0" style="stop-color:#F5F6F7"/>
				<stop  offset="5.227270e-02" style="stop-color:#F5F6F7"/>
				<stop  offset="0.7359" style="stop-color:#CBD6DB"/>
				<stop  offset="1" style="stop-color:#EDEFF1"/>
			</radialGradient>
			
				<polygon style="clip-path:url(#SVGID_00000135656114036718576270000013577366346909236639_);fill:url(#SVGID_00000152953387338242024170000011477250429115083406_);" points="
				126.9,29.5 126.5,108.6 24.8,108 25.2,28.9 			"/>
		</g>
		<path class="st8" d="M81.8,32.2c24.7,0,46.7,22.1,38.2,48c-3.4,10.4-13,18.9-22.7,22.5c-6.3,2.4-13.7,2.5-19.4,2.5
			c-1,0-1.9,0-2.8,0c-0.3,0-0.6,0-0.8,0c-0.4,0-0.7,0-1.1,0c-14.2,0-33.8-1.7-45.1-16.8c15.5,0,12.5-17.3,14.5-27.6
			c3.1-15.7,18.6-26.2,33.6-28.2C78.1,32.3,79.9,32.2,81.8,32.2 M81.8,26.7c-2.1,0-4.2,0.1-6.3,0.4c-8.7,1.2-17.2,4.8-24,10.1
			c-7.7,6-12.6,13.8-14.3,22.5c-0.5,2.6-0.7,5.4-0.9,8.2c-0.3,4.3-0.7,8.8-2,11.7c-0.9,2-2.3,3.3-6.1,3.3c-2.1,0-4,1.2-4.9,3
			c-0.9,1.9-0.7,4.1,0.5,5.8c12.8,17,34.4,18.9,49.5,18.9c0.4,0,0.7,0,1.1,0c0.3,0,0.5,0,0.8,0c0.4,0,0.8,0,1.3,0c0.5,0,1,0,1.5,0
			c7,0,14.5-0.3,21.3-2.9c5.7-2.1,11-5.5,15.6-9.9c4.9-4.7,8.5-10.3,10.4-16c2.1-6.5,2.7-13.1,1.6-19.5c-1-6-3.4-11.6-7.1-16.7
			c-4.2-5.7-9.8-10.5-16.4-13.9C96.6,28.5,89.2,26.7,81.8,26.7"/>
		<path class="st8" d="M74.7,59.6c0,2.9-2.4,5.3-5.3,5.3s-5.3-2.4-5.3-5.3c0-2.9,2.4-5.3,5.3-5.3S74.7,56.6,74.7,59.6"/>
		<path class="st8" d="M99.3,59.6c0,2.9-2.4,5.3-5.3,5.3c-2.9,0-5.3-2.4-5.3-5.3c0-2.9,2.4-5.3,5.3-5.3C97,54.3,99.3,56.6,99.3,59.6
			"/>
		<path class="st8" d="M81.6,87.8c-8.9,0-17-5.9-18.5-13.5c-0.3-1.5,0.7-2.9,2.2-3.2c1.5-0.3,2.9,0.7,3.2,2.2
			c0.9,4.5,6.3,9.3,13.5,9.1c7.5-0.2,12.4-4.7,13.5-9c0.3-1.5,1.8-2.4,3.3-2c1.5,0.3,2.4,1.8,2,3.3c-0.8,3.5-3.1,6.8-6.4,9.2
			c-3.4,2.5-7.7,3.9-12.3,4C81.9,87.8,81.7,87.8,81.6,87.8"/>
		<path class="st8" d="M44.2,110.1c0-6,4.9-10.9,10.9-10.9s10.9,4.9,10.9,10.9c0,6-4.9,10.9-10.9,10.9S44.2,116.1,44.2,110.1"/>
		<path class="st9" d="M51.5,110.1c0-2,1.6-3.6,3.6-3.6c2,0,3.6,1.6,3.6,3.6c0,2-1.6,3.6-3.6,3.6C53.1,113.7,51.5,112.1,51.5,110.1"
			/>
		<path class="st8" d="M81.9,110.1c0-6,4.9-10.9,10.9-10.9c6,0,10.9,4.9,10.9,10.9c0,6-4.9,10.9-10.9,10.9
			C86.8,121,81.9,116.1,81.9,110.1"/>
		<path class="st9" d="M89.2,110.1c0-2,1.6-3.6,3.6-3.6c2,0,3.6,1.6,3.6,3.6c0,2-1.6,3.6-3.6,3.6C90.8,113.7,89.2,112.1,89.2,110.1"
			/>
	</g>
</g>
</svg>
