<svg xmlns="http://www.w3.org/2000/svg" viewBox="0 0 138.72 45.02"><defs><style>.cls-1{fill:#ec631b;}.cls-2{fill:#6ea5c0;}</style></defs><g id="Capa_2" data-name="Capa 2"><g id="Modo_de_aislamiento" data-name="Modo de aislamiento"><path d="M40.78,10.43l1.73,20s1.45,13-10.85,4.14c0,0-1.85-1.65-3.19-.83s-.93,2.27.72,3.92,16.21,18.36,27.24-9.8l6.51-16.52S64.39,9,62.12,8.28s-2.69,1.54-3.52,3.09S52.52,24,52.52,24s-4.14,6.91-5.69-1.85S45.08,7.45,42.69,7.25s-1.91,3.18-1.91,3.18"/><path class="cls-1" d="M5.83,20.43v.85c0,2.71.76,4.46,3.83,4.46a3.32,3.32,0,0,0,3.48-3.56c0-2.63-1.33-3.6-5.18-4.94C2.79,15.47.4,13.32.4,8.5.4,2.87,3.84,0,9.34,0c5.19,0,8.94,2.23,8.94,7.78v.8H12.7c0-2.71-.93-4.3-3.16-4.3C6.91,4.28,6.23,6,6.23,7.63s.52,2.88,3,3.92l4.5,1.95c4.38,1.91,5.51,4.12,5.51,7.66,0,6.1-3.72,8.86-10,8.86C2.59,30,0,26.94,0,21.6V20.43Z"/><path class="cls-1" d="M75.46,27.16h-.08A5.27,5.27,0,0,1,70.44,30c-4.58,0-6.67-3.36-6.67-11.46S65.88,7.13,70.44,7.13a5.25,5.25,0,0,1,4.7,2.59h.08V.58H80.8V29.47H75.46Zm-3.19-1.42c2.47,0,3-2.44,3-7.18s-.48-7.17-3-7.17-2.92,2.43-2.92,7.17.48,7.18,2.92,7.18"/><path class="cls-1" d="M84.72.24h5.59V5H84.72Zm0,7.45h5.59V29.47H84.72Z"/><polygon class="cls-1" points="104.55 7.69 110.14 7.69 104.67 29.47 98.2 29.47 92.58 7.69 98.4 7.69 101.52 23.29 101.6 23.29 104.55 7.69"/><path class="cls-1" d="M117,19.43v1.75c0,2.55.68,5.06,2.75,5.06,1.87,0,2.63-1.41,3-4.08h5c-.2,5.06-2.63,7.9-7.89,7.9-8.1,0-8.42-6.23-8.42-11.66,0-5.82,1.13-11.25,8.66-11.25,6.51,0,8,4.38,8,11v1.25H117Zm5.7-3.32c-.12-3.31-.52-5.18-2.83-5.18S117,13.24,117,15.27v.84Z"/><path class="cls-2" d="M80.46,37.59q0,.36-.12.36l-.16-.08a.44.44,0,0,1-.06.28.54.54,0,0,0,.12.18.07.07,0,0,0,.08-.08c-.18.69-.38,1.37-.56,2a9.14,9.14,0,0,1-.7,1.89l-.15.12a.26.26,0,0,0,.15.06c-.89,1.65-1.89,2.49-3,2.49a1.76,1.76,0,0,1-1-.32,1.07,1.07,0,0,1-.52-.92,1.59,1.59,0,0,1,.42-.89c.28-.36.54-.52.76-.52.06,0,.08,0,.08.08s0,.08.08.08.12,0,.12-.08l0-.08a6.82,6.82,0,0,0,.12.76,2.26,2.26,0,0,0,.47.91,2.93,2.93,0,0,0,2-1.93,21.79,21.79,0,0,0,.91-2.89c.3-1.11.46-1.71.46-1.77a.58.58,0,0,0,.2.1s0,.2,0,.42ZM75.64,44l-.22.1v-.12l.18-.1Zm3-1.59h-.14v.28h.14Zm1.37-3.13-.1-.08-.18.26.1.08Zm.5-1.89a2.08,2.08,0,0,0-.1-.58c0,.16,0,.26-.08.3a.25.25,0,0,1-.08-.14.17.17,0,0,1-.08.14,1.17,1.17,0,0,1-.08-.34v.4a3.59,3.59,0,0,1,.42.22m.16-1.19a.3.3,0,0,0-.12,0c-.12,0-.24.12-.32.36v-.28a.49.49,0,0,0,.18-.22c0-.06.06-.1.08-.1,0,.18.08.26.18.26m-.08.18h-.2v.14h.2Zm.26-.92c-.1-.1-.16-.18-.16-.22a.47.47,0,0,1-.18.24l.18-.14ZM85,39q-.15.45-.36.54a.72.72,0,0,1,.24-.4l0,0q-.09,0-.3-.24s.06.14.2.26a.34.34,0,0,1-.2.12s-.1,0-.16,0c-.06.26-.14.6-.28,1a5,5,0,0,1-1.19,2.17v-.2a5.81,5.81,0,0,1,.14-.74,5.72,5.72,0,0,0,.12-1,1.13,1.13,0,0,0,0-.32.86.86,0,0,0,.1-.6.49.49,0,0,0,0-.3c0-.2,0-.32,0-.36s0,.16-.06.16,0,0,0-.1,0,0-.12,0-.2.1-.3.3l-.18-.18c.08-.08.08-.14,0-.2a.44.44,0,0,0-.06.18.44.44,0,0,1-.06.18.32.32,0,0,1,.22.06,1.42,1.42,0,0,1-.48.34.68.68,0,0,1-.08-.36v-.24A.2.2,0,0,0,82,39h.32a.44.44,0,0,1,.1-.29.31.31,0,0,0,.12.09.18.18,0,0,1,.12.08.28.28,0,0,1,.32-.17v-.36a.87.87,0,0,0-.24.2l-.12-.12a2.26,2.26,0,0,1,.38-.36,1.19,1.19,0,0,0-.22-.2.24.24,0,0,1-.12-.18.26.26,0,0,1-.08.2.36.36,0,0,1-.08-.2c0,.12,0,.22-.08.26l-.12-.12a.32.32,0,0,1,.06-.16,1.27,1.27,0,0,1-.24.32.56.56,0,0,1-.28.2,1.08,1.08,0,0,0,.2-.62c-.1.18-.2.24-.34.22v.28c0,.28-.1.4-.2.4s-.2,0-.2-.1l.16-.12.16-.12c-.06,0-.16-.08-.3-.22a.2.2,0,0,1,.16,0l.14,0-.12-.36a.33.33,0,0,1-.16.24L81.1,38a.42.42,0,0,0,.05.12.79.79,0,0,1,0,.12A10.65,10.65,0,0,0,81,39.76q0,1.11-.12,3a8.54,8.54,0,0,1-.16.93c-.08.4-.12.64-.12.68v.48h.83s.08,0,.08,0,0,0,0,0a.07.07,0,0,0,0,0s0,0,.08,0,.06,0,.06,0,0,0,0,.06a.07.07,0,0,0,0,.06s0,0,.06,0c.3,0,.78-.48,1.46-1.46a4.81,4.81,0,0,0,1-1.81c-.06,0-.1-.14-.1-.3a.09.09,0,0,1,0,.1s0,0,.08,0,.2-.24.38-.71.28-.74.4-1.1a.12.12,0,0,1-.08,0s0,0,0,0,0,0,.1,0,.14-.08.16-.24A.56.56,0,0,0,85,39M80.82,36.5H80.7v-.2h.12ZM81,35.22h-.12V35H81Zm.12.32-.22.1v-.12l.19-.1Zm0,.4h-.21v-.12h.21Zm0,8.16h-.13v-.36h.13Zm.07-8.88H81v-.28h.14Zm.43-.42c-.18.18-.3.26-.36.26v-.52a.41.41,0,0,0,.36.26m0,2.39v-.3a1,1,0,0,1-.16.22.5.5,0,0,0-.1.32s0-.12.1-.3a.27.27,0,0,0,.16.06m.14-2.83c0-.09-.1-.13-.32-.13a.25.25,0,0,1,.08-.14c.06-.08.08-.12.08-.14s0,.06,0,.12a.39.39,0,0,1,.2.29m-.16,8.31h-.14V43h.14Zm.08-8.13h-.12v-.21h.12Zm0,1.74h-.12v-.44h.12Zm.2-.62-.12-.12-.18.14c.16-.34.24-.48.24-.44a2.34,2.34,0,0,1,0,.52.12.12,0,0,0,0-.1m.06.44h-.2V36h.2Zm.1,3.36-.08-.08-.18.18.08.08Zm.12-1.19a1.35,1.35,0,0,1-.26.3c0-.18,0-.26-.06-.26a1.79,1.79,0,0,0,.32,0m0-1.91-.1.06-.18-.22.1-.08ZM82,34.66a.19.19,0,0,1-.08.18.25.25,0,0,1-.08-.18s0,.08,0,.2a.11.11,0,0,1,0,.14.38.38,0,0,0,.16-.34m.16-.34s-.06,0-.12,0h-.18v.24c0-.2,0-.31,0-.31a.15.15,0,0,1,.16,0c.08,0,.1,0,.1.09m.14-.79a.34.34,0,0,0-.06-.2,1.15,1.15,0,0,0-.08.44c-.08-.08-.14-.08-.2,0,.12.12.16.2.12.2l-.16-.16a.4.4,0,0,0-.08.26,1,1,0,0,1,.08-.32,1.07,1.07,0,0,0,.08-.36c0,.12,0,.22.08.26a2.41,2.41,0,0,1,.14-.38.48.48,0,0,1,.08.3M82,37.35h-.1l-.1-.18.12,0Zm.16-1.53h-.12v-.28h.12Zm0,1.83h-.12v-.2h.12Zm.14-3.09,0,.1-.2-.1,0-.12Zm0,2.27c-.12-.12-.18-.18-.2-.18a.19.19,0,0,0,.2-.17Zm-.1-1.75a.14.14,0,0,1-.08.12V35c0,.1,0,.14.08.1m.08,2.83h-.14v.5h.14Zm.06-4.36h-.12l-.08-.26.1,0Zm0,.3h-.12v-.2h.12Zm0,5.41h-.12v.28h.12Zm.36.42-.2-.08.2.08-.2-.12a.18.18,0,0,0-.16.08.24.24,0,0,1-.08.08c0,.06.18,0,.44,0m-.08-2.63c-.12,0-.18.06-.18.2a.17.17,0,0,0-.06-.12.08.08,0,0,0-.12,0s.06-.12.16-.22h.1s0-.06,0-.1a.27.27,0,0,1-.06-.14q0,.12.18.12Zm-.12-1.21-.1.3-.1,0,.08-.26Zm0-.82-.22.2.14-.18c-.12-.12-.12-.18,0-.18s.08.16.1.16m.12,5.12h-.32a.37.37,0,0,0,.08-.2,1.27,1.27,0,0,0,.24.2m-.06-2.25-.2.1.12.36s0-.08,0-.2a.74.74,0,0,0,0-.26m.28-4.06a1.55,1.55,0,0,1-.24-.2s-.06,0-.1.08a.27.27,0,0,1-.14.12,1,1,0,0,1,.16-.22c.08-.1.14-.16.18-.22a.68.68,0,0,0,.14.44m-.22-.44h-.12v-.2h.12Zm0,1.31h-.12v-.2h.12ZM83,35l-.1-.06-.32.44.1.08Zm.1,2.23q-.12-.12-.42,0a1.28,1.28,0,0,1,.42-.28Zm-.26-2.76h-.14v-.2h.14Zm.08,1.37h-.14l-.08-.36h.12Zm.18,1.91a.18.18,0,0,0-.16,0,.18.18,0,0,1-.16,0l0,0,.2-.2a1,1,0,0,1,.08.22m.16,1.65a1.61,1.61,0,0,1-.34-.28c0,.1,0,.22-.06.34,0-.08,0-.12.14-.12a.55.55,0,0,1,.18,0,.12.12,0,0,0,.08,0m0,.12-.18,0-.18,0a.48.48,0,0,0,.12.22s.08-.12.24-.3m-.16-4.88a.21.21,0,0,0-.08-.17c-.06,0-.08-.08-.08-.09v.3s0-.06.06-.08a.13.13,0,0,1,.1,0m0,1.74H83l-.08-.18.1,0Zm.2,1.81-.18.06c-.1,0-.16,0-.2,0a.51.51,0,0,0,.12-.38.26.26,0,0,0,.08.2.36.36,0,0,0,.08-.2.41.41,0,0,0,.1.32m0-2.13h-.13v-.36h.13Zm0,.63h-.13v-.29h.13Zm0,.32h-.13v.44h.13Zm.08-2.33s-.08,0-.11,0a.08.08,0,0,0,0,.08.79.79,0,0,1,0-.12.31.31,0,0,0,0-.12s0,.1.07.18m.06-.53-.11.2-.12,0,.1-.2Zm.9,6.53-.08-.08-.18.18.08.08Zm0-.64a.45.45,0,0,0-.2.1l.18.2c.12-.12.12-.22,0-.3m.28-.3H84.5V40h.12Zm.14-1.07h-.12v.21h.12Zm.54-.38c0,.1-.1.16-.3.16,0,0-.06,0-.06,0s0,0,0,.06,0,0,0,.06,0,0-.06,0a.88.88,0,0,1-.2,0s-.08,0-.1,0a.32.32,0,0,1,.2.08.36.36,0,0,0,.16.08c0-.1,0-.14.1-.14a1,1,0,0,1,0,.47c0-.08,0-.2.08-.39a2.25,2.25,0,0,1,.08-.4m-.08-.38h-.14v.28h.14Zm.14-.26-.1,0-.1-.22h.12Zm.12.56a.58.58,0,0,0-.2-.1q.18-.18.18-.24a.64.64,0,0,0,0,.16Zm.21-1.08h-.12v-.28h.12Zm0,.46v-.34h-.12v.36h.12ZM86,37l-.16-.36h-.1l.16.33H86Zm-.14.6v-.34h-.12v.36h.12ZM86,36.46l-.08.08-.18-.18.08-.08Zm.4,5.53s0,.06-.06.08-.06-.24-.14-.56a1.93,1.93,0,0,1-.08-.51,5,5,0,0,1-.2.73,2.86,2.86,0,0,0-.14.56,2.88,2.88,0,0,0,.18.84,2.91,2.91,0,0,0,.32.75,2.23,2.23,0,0,0,.12-.75c0-.36,0-.6,0-.7s-.08-.22,0-.44m.42-3.34c0-.08-.06-.18-.2-.3a.39.39,0,0,1-.18.1,3.35,3.35,0,0,1,.22.39s-.08.06-.1,0c-.18-.19-.28-.33-.28-.43a.55.55,0,0,1,0-.18.22.22,0,0,0,0-.1,1.16,1.16,0,0,0-.12.56,1.08,1.08,0,0,0,.16.65h-.1a.26.26,0,0,0-.08.2.35.35,0,0,1-.12.22.52.52,0,0,1,.18.34c0-.12.14-.4.34-.86a2.67,2.67,0,0,0,.24-.63m-.5-2.15-.08-.42h-.14l.08.42Zm4.48,5.55a.83.83,0,0,1,.06.32c0,.74-.78,1.53-2.37,2.33.08-.08.08-.18,0-.28q-.06.39-.06.36a.38.38,0,0,1-.26-.14s0,.1,0,.22a.34.34,0,0,1-.24-.14c0,.06-.09.1-.09.16s0,0-.14,0l-.26,0a2.12,2.12,0,0,1-.94-.46c0-.28.1-.74.22-1.41s.16-.92.16-1,0,0-.08,0-.08,0,0,0,.1,0,.08-.1-.06-.1-.08-.16-.06-.2-.08-.28a.36.36,0,0,1,0-.32l-.2-.21a.36.36,0,0,0-.08.21.73.73,0,0,0-.1-.43c-.06-.08-.1-.12-.1-.14a4.48,4.48,0,0,1,.32-.86c.26-.64.42-1.05.48-1.25a1,1,0,0,1,0,.18.13.13,0,0,0,0,.13,1.92,1.92,0,0,1,.2-.29v-.64l-.38.12a.41.41,0,0,0,.22.14,2,2,0,0,0-.6.18,4.08,4.08,0,0,1,.44-.72.27.27,0,0,0-.22-.08.19.19,0,0,0-.14,0,3.42,3.42,0,0,1,.4-.83,4.45,4.45,0,0,1,.26-.9,2,2,0,0,1,.54-.8.48.48,0,0,1-.06-.14,1,1,0,0,0-.06-.14c-.12,0-.18.08-.18.22s0,0-.08-.1-.08-.1-.14-.1a.45.45,0,0,0-.3.1,2,2,0,0,0,.24.28s0,0,0,.08-.06.08-.16.08-.1,0-.18.12a.32.32,0,0,0,.22.06,4.42,4.42,0,0,0-.66,1,1.07,1.07,0,0,0-.16-.66.34.34,0,0,0,.24.08l.12-.12c-.08-.08-.16-.1-.22,0l.36-.12s0,0,0-.12,0-.06-.08-.06a.19.19,0,0,0-.14,0s0,0,0,0V35s0,0,0-.08.06-.08.14-.08.1,0,.1,0,0,0,0,0a1,1,0,0,1,.34-.65l.36-.34a1.77,1.77,0,0,0,.16.22h.16c0,.06,0,.08.13.08l.12-.2a3,3,0,0,0-.53-.22.85.85,0,0,0,.1-.14.2.2,0,0,1,.16-.06l.53-.22a3.3,3.3,0,0,1,.62-.22h.94v.28a.48.48,0,0,1-.08.24.81.81,0,0,0-.12.22,7.61,7.61,0,0,1-.48,1.21,1.48,1.48,0,0,0-.14.68s0,0-.08,0a.2.2,0,0,0-.12,0,.29.29,0,0,0-.2.08l-.2.14c.08-.08.08-.16,0-.22a.8.8,0,0,0-.34.26.56.56,0,0,0,.34.2.35.35,0,0,0,.22-.12.71.71,0,0,1,.22-.18.2.2,0,0,1,0,.18c0,.08-.06.12-.1.12l-.12.12s0,.06.08.12c0,.39-.1.63-.3.71,0,0,.1,0,.22,0-.08.22-.16.44-.24.68a1.89,1.89,0,0,0-.1.6.25.25,0,0,0-.08-.22.37.37,0,0,1-.12.14c-.06.06-.08.08-.08.1s.06.08.2.12a.42.42,0,0,1-.2.27c.06,0,.08.16.08.36a7.62,7.62,0,0,1-.16,1.2,4.32,4.32,0,0,1-.17.75,4.53,4.53,0,0,0,.15,1.22,1.61,1.61,0,0,0,.56,1,.22.22,0,0,0,.06-.14s.1,0,.2.14.06,0,.12-.08a.29.29,0,0,1,.2-.08,1.64,1.64,0,0,0,.88-.47,2.39,2.39,0,0,0,.87-.82m-4.2-3-.28-.1V39l.24.1Zm-.06-1.35h-.12l-.08.36h.12Zm.38-.8-.1.2-.1,0,.1-.2Zm0,3.77-.1,0-.1.2.1,0Zm.72-3a1.17,1.17,0,0,0-.22.14.27.27,0,0,0,.16.06.58.58,0,0,0-.2.32.93.93,0,0,0-.08-.42,1.22,1.22,0,0,1-.56.12,1.49,1.49,0,0,0,.32-.42c0,.06.06.08.16.08a.1.1,0,0,1,.08,0,.06.06,0,0,1,0,0,.06.06,0,0,0,0,0s0,0,.08,0a.88.88,0,0,0,.2,0s.08,0,.1,0m-.72,5.87h-.14v-.29h.14Zm.2-6.37-.22.1v-.12l.18-.08Zm.12-.42a.41.41,0,0,1-.18-.1.75.75,0,0,1,0,.16.64.64,0,0,0,0,.16s0-.08.08-.14.1-.08.14-.08m-.1,2.77H87v.36h.14Zm.08-.2h-.12v.2h.12Zm0,1.5h-.12V41h.12Zm1-5.38c-.08.2-.24.54-.49,1-.14-.14-.18-.26-.12-.32-.18,0-.26.06-.28.12s-.1.1-.26.1a1.65,1.65,0,0,0,.26-.5.36.36,0,0,0,.08.16c.08-.2.2-.3.32-.3s0,0,0,0a.87.87,0,0,0,.1.2,1,1,0,0,1,.36-.52m-.89,3,0-.12-.18.1v.12ZM88,39.52a.5.5,0,0,1-.33-.18s0,0,0,.1,0,0-.1,0-.14.06-.24.16c-.06-.06-.14-.08-.18,0a1,1,0,0,0,.42,0s.06,0,.06,0,0,0,0,.06a.06.06,0,0,0,0,0s0,0,.07,0a.28.28,0,0,0,.2-.1c0-.06.08-.1.1-.1m-.57-4.82h-.12v-.37h.12Zm0,2.73h-.12v-.28h.12Zm.08,2.77-.12,0-.1.2.1,0Zm.2-3c-.06-.06-.2-.14-.36-.26a.24.24,0,0,1,.08-.16c.06-.06.1-.1.14-.1a.6.6,0,0,0,.14.52m-.12,1.28-.08-.32h-.12l.08.32Zm.31,1.23-.12,0-.17.34.1,0Zm.06-4.6-.26.26-.09-.08.27-.26Zm.14,1.44a.7.7,0,0,0-.18-.14l-.17.17a.89.89,0,0,1-.08-.17.45.45,0,0,0,0,.24,1.49,1.49,0,0,1,0,.23.29.29,0,0,1,.08-.18,1.26,1.26,0,0,0,.15-.21.34.34,0,0,0,.2.06M88,44.46h-.27a.53.53,0,0,1,.06-.24.73.73,0,0,0,.07-.14c0,.24,0,.36.14.38M88,43.6,88,44h-.14l0-.36Zm.06-7.24H88l-.08-.18.1,0Zm0,.43L88,37l-.1,0,.08-.2Zm.26.64a.88.88,0,0,1,0,.18,1.25,1.25,0,0,0,0,.24s-.06,0-.1-.08a1.55,1.55,0,0,1-.08-.14.37.37,0,0,1-.18,0,1.06,1.06,0,0,0,.4-.24m-.1,6.37h-.12l-.08-.44h.12Zm.12-10,0-.12-.26.08v.12Zm.22.85-.42.66a1.8,1.8,0,0,1,.06-.3,1.64,1.64,0,0,0,.06-.36Zm0,2h-.12l-.08.37h.12Zm-.08-2.89h-.12v.28h.12Zm.2,0v-.14H88.4v.12h.28Zm.1.12h-.12l-.2.67h.12Zm.76,9.77H89.4v-.2h.14Zm.16-10.37h-.12v.2h.12Z"/><path class="cls-2" d="M91.37,41l-.18.87h-.12l.18-.87Zm5.79,1.27-.12.86C97,43,97,43,96.9,43c.08.37-.43.85-1.51,1.47,0,0,0-.08,0-.18a1.38,1.38,0,0,0,0-.26s-.12-.06-.22-.16,0,.1,0,.22a2.46,2.46,0,0,1,0,.54,4.86,4.86,0,0,1-1.71.36,2.39,2.39,0,0,1-1.75-.62,2.14,2.14,0,0,1-.64-1.67v-.26a1.14,1.14,0,0,1,.14-.16.21.21,0,0,1,.18-.1.88.88,0,0,0,.16.5h.06a4.14,4.14,0,0,1-.1-.88,1.15,1.15,0,0,0-.18-.71.57.57,0,0,0,.14-.2,3,3,0,0,1,.06-.78,4.42,4.42,0,0,1,1.51-1.67A3.39,3.39,0,0,1,95,37.83c1.08,0,1.63.46,1.63,1.41a1.74,1.74,0,0,1-.83,1.46,14.77,14.77,0,0,1-1.91,1v-.48a3,3,0,0,0,.81-.75,1.72,1.72,0,0,0,.46-1,1.22,1.22,0,0,0-.14-.56c-.12-.29-.3-.43-.5-.43s-.63.22-.95.67a2.32,2.32,0,0,0-.5,1c0-.1,0-.14,0-.14L93,39.9c-.08.36-.18.72-.26,1.1a.72.72,0,0,1,0-.46l-.12-.12a1.57,1.57,0,0,0-.16.36,1.17,1.17,0,0,1-.16.37,2,2,0,0,1,.56,0,.74.74,0,0,0,.12-.31v.51s.06.06.08.1.08,0,.16,0,.08,0,.08,0,0,0,0,0a.06.06,0,0,1,0,0s0,0,.08,0a.49.49,0,0,1,.3.18.22.22,0,0,0,.06-.18.26.26,0,0,1,0-.16c0,.44-.1.7-.36.76-.1,0-.18-.08-.26-.26a.51.51,0,0,0-.12.38,1.53,1.53,0,0,0,.44.94,1.48,1.48,0,0,0,.64.55,3.55,3.55,0,0,0,.47.08c.24.06.36.12.4.2.12-.12.2-.2.24-.2a.12.12,0,0,1,.08,0l.2-.18a.24.24,0,0,0,.08.18,6.15,6.15,0,0,1,1.61-1.39m-5.11-1L92,41.17l-.2.2.08.1ZM92,41.09l0-.49h-.16l0,.49Zm.35,1.46h-.16l-.09.48h.15Zm.52-1.28a3.07,3.07,0,0,0-.36.94.29.29,0,0,1-.08-.24,1,1,0,0,1,.22-.68h-.32v1a.16.16,0,0,1,.18.14c-.08.46-.18,1.11-.28,1.93a5.24,5.24,0,0,1,.4-1,1.31,1.31,0,0,1-.06-.41,3.5,3.5,0,0,1,.16-.84,5.84,5.84,0,0,0,.14-.84m0-1.55H92.7V40h.14Zm.34-.14-.12,0-.1.22.12,0Zm.94,4.58-.1-.24-.12,0,.1.2ZM97.6,34.07a3.45,3.45,0,0,1-1.19,1.81,12.57,12.57,0,0,1-1.82,1.21l-.49-.16a8.37,8.37,0,0,0,1.65-2.66Zm-3.13,7.1-.13-.25-.12,0,.11.21Zm.6,2.93h-.14v.32h.14Zm.24-3.72-.08-.08-.2.2.08.08Z"/><path class="cls-2" d="M106.44,43a14.7,14.7,0,0,1-1.61,1.31,3.62,3.62,0,0,1-1.93.68,2,2,0,0,1-.94-.22.72.72,0,0,1-.44-.66v-.14l-.14,0-.14,0a.5.5,0,0,0,.18-.08,1.13,1.13,0,0,1-.43-.52q-.09.09-.24,0a.35.35,0,0,1,0,.12.35.35,0,0,0,0,.12s0,0,0,0l.12-.06a2.45,2.45,0,0,1-2,1.38,2.16,2.16,0,0,1-.9-.28c-.4-.2-.58-.4-.58-.6s.1-.24.28-.42.38-.38.58-.57a1.46,1.46,0,0,1,.52.63.77.77,0,0,0,.69.38c.54,0,1-.6,1.34-1.85a10.47,10.47,0,0,0,.39-2l1.3-.26a1.22,1.22,0,0,0-.44,0h-.4a2,2,0,0,0-.16-.82c0,.22-.08.52-.14.92-.06-.28-.14-.74-.25-1.39a.72.72,0,0,0,0,.27l-.2,0a2.08,2.08,0,0,0-.3,0,1.29,1.29,0,0,0-.56.24,2,2,0,0,0-.64.58c-.38.58-.79,1.16-1.17,1.77A5.31,5.31,0,0,1,96.86,43v-.7a5.75,5.75,0,0,0,.56-.66L98.58,40a5.72,5.72,0,0,1,1.33-1.43l-.06-.1a2.78,2.78,0,0,1,1.53-.48c.7,0,1.22.5,1.52,1.49a5.44,5.44,0,0,1,.83-1.13,1.41,1.41,0,0,1,1-.36,1.33,1.33,0,0,1,.91.38.9.9,0,0,1,.4.61.79.79,0,0,1-.46.66c-.43.26-.65.4-.67.4s0-.22.1-.32a2.5,2.5,0,0,0-.8-.89,1.37,1.37,0,0,0-.66.63A9.19,9.19,0,0,0,103,41a8.49,8.49,0,0,0-.4,1.65,2.25,2.25,0,0,0,.2,1,.8.8,0,0,0,.75.54,2.77,2.77,0,0,0,1.58-.8l1.27-1V43Zm-5.34.28-.21-.46-.12.06.2.4Zm.28-2.39h-.16l-.1.45h.16Zm.42,1.73a2.24,2.24,0,0,1-.44-.22,2.94,2.94,0,0,0-.12-.64c-.06-.26-.1-.32-.1-.22a7.22,7.22,0,0,0,.24,1.2c0,.06,0,0,0-.12s0-.06.12-.06a.62.62,0,0,1,.22,0,.44.44,0,0,1,.12,0m-.32.7h-.16v.43h.16Zm.26-3h-.16v.34h.16Zm.18,1-.1-.53h-.16l.1.53Zm.2-2.82-.14-.06-.12.24.12.06Zm0,2.86H102l-.12.3.14.06Zm0,.44H102v.44h.16Zm.52.68a.75.75,0,0,1-.52-.12,8.52,8.52,0,0,0,.22,1s0-.13,0-.41a.59.59,0,0,1,0-.34.58.58,0,0,0,.28-.16m-.16,1.43h-.16v-.52h.16Zm.2.66h-.16l-.1-.62h.16Z"/><path class="cls-2" d="M110.42,42.17a.75.75,0,0,1,0,.22c0,.46-.36,1-1.09,1.61a9.53,9.53,0,0,1-.88.7,1.6,1.6,0,0,1-.87.3c-.8,0-1.2-.68-1.2-2.07a3.87,3.87,0,0,1,.7-2.71.27.27,0,0,0-.16-.06v-.28a2.45,2.45,0,0,1,.22-.62,1.62,1.62,0,0,1,.46-.71.14.14,0,0,0-.12-.08c.1,0,.16-.1.16-.3a1,1,0,0,0,.1.16s0,0,0,0v-.1s0,0,.1,0a6.71,6.71,0,0,0,.74-.12c.5-.1.84-.18,1-.2a4.22,4.22,0,0,0-.2.86.74.74,0,0,1-.34.55.27.27,0,0,0,.16.06,24.48,24.48,0,0,0-.94,3.17,1.49,1.49,0,0,0,.56.95,13.31,13.31,0,0,0,1.53-1.27m-2-3.52-.6-.24v.12l.54.24Zm1.63-3a1,1,0,0,1-.31.62.83.83,0,0,1-.62.32h-.26c-.48-.26-.72-.56-.72-.94a1,1,0,0,1,.94-.94.86.86,0,0,1,.66.36.88.88,0,0,1,.31.58m-1,3.46-.22,0-.2,0,.32.3a.62.62,0,0,1,.1-.22"/><path class="cls-2" d="M111.88,39.84a.7.7,0,0,0-.24.52.61.61,0,0,0-.1-.46l-.24.14a3.48,3.48,0,0,1,.22.36.87.87,0,0,1,.16.4,8.43,8.43,0,0,1-.44,2.21c0-.08-.06-.16-.18-.28a2.4,2.4,0,0,0-.24.69c-.08.38-.12.6-.14.64a2.19,2.19,0,0,1-.18-.46c-.08-.31-.1-.47-.12-.49s-.08,0-.08.1V43c0-.14,0-.34,0-.62a4.18,4.18,0,0,1,0-.62,1.1,1.1,0,0,1,.28-.79c.12-.1.16-.16.16-.2l-.12-.12a.68.68,0,0,0,.2.08s0-.12-.12-.24a4,4,0,0,0,.5-.64c.24-.36.42-.6.5-.72a.62.62,0,0,0,0,.38c.08.16.14.26.26.3m-.54,2h-.14l-.14.72h.14Zm5,.28c0,.18,0,.44,0,.82a8.29,8.29,0,0,1-1.08,1,3.06,3.06,0,0,1-1.43.82c-.08,0-.1,0-.08,0s0,0-.1,0-.16,0-.16,0,0,0,0,.1a.44.44,0,0,0-.08-.32.94.94,0,0,0-.06.46h-1a4.22,4.22,0,0,0,.1-.74s-.06,0-.08-.06a.44.44,0,0,0-.06-.1,4.84,4.84,0,0,1-.08.48c0,.18-.09.26-.19.26s-.12,0-.12,0,0,0-.12,0a.58.58,0,0,1-.32-.12l-.28-.2a4.24,4.24,0,0,1,.1-.64.1.1,0,0,1-.08,0,.18.18,0,0,0-.08-.12,1.45,1.45,0,0,0-.1.62c0-.12,0-.34,0-.64s0-.51,0-.63a.55.55,0,0,0,.24.1s-.06.11-.18.23a.68.68,0,0,0,.2.16s.06-.32.18-.87a3.82,3.82,0,0,0,.12-.84c.08.08.16.1.24,0-.18-.16-.28-.3-.28-.42a2,2,0,0,1,.24-.67.24.24,0,0,0,.08.18.25.25,0,0,0,0-.12.44.44,0,0,0-.08-.26c0-.1-.08-.16-.08-.18a6.67,6.67,0,0,1,.22-1.12c.17-.65.31-1,.41-1a.27.27,0,0,1,.2.06.42.42,0,0,1,.08.12c.06-.06,0-.14,0-.24a1.92,1.92,0,0,1,.64-.4.78.78,0,0,0,.12.46c.06,0,.1-.22.1-.54l.46-.06a4.15,4.15,0,0,1,.51-.06,1.35,1.35,0,0,1,1,.5,1.43,1.43,0,0,1,.44,1,.79.79,0,0,1-.3.56.74.74,0,0,1-.44.24.42.42,0,0,0-.22.1.42.42,0,0,1-.24.1c-.08,0-.1,0-.08,0s0,0-.1,0a.19.19,0,0,0-.19.1.83.83,0,0,1-.08.18c0-.16,0-.36,0-.58s0-.4,0-.48a1.3,1.3,0,0,1,.22-.75,3.56,3.56,0,0,1-.64-.08,3.64,3.64,0,0,0-.54-.08c-.1,0-.14,0-.12.1s0,.25,0,.18a2.4,2.4,0,0,0-.2-.38.46.46,0,0,1-.06.18.4.4,0,0,0-.06.16s.06.08.16.08a3.13,3.13,0,0,0-.66,1.17,4.37,4.37,0,0,0-.29,1.49,3.77,3.77,0,0,0,.33,1.24c.22.65.44,1,.62,1h.88a2.19,2.19,0,0,0,1.21-.32c.26-.23.68-.59,1.28-1.17m-4.92-1.69h-.16v.44h.16Zm.28,3.94h-.16v-.26h.16Zm.1-1.1h-.16V44h.16Zm.2-4.44-.12.44h-.16l.12-.44Zm0,3.87h-.16l-.1.54h.16Zm.18.75H112l-.1.72h.16Zm.15-.61h-.25v.16h.25Zm.24-3.89h-.16v.24h.16Zm0,4.13h-.16V44h.16Zm1,.57A1.42,1.42,0,0,0,113,44a.14.14,0,0,1,0-.2,1,1,0,0,0,0,.86.3.3,0,0,1,0-.14.65.65,0,0,1,.28-.44c.14-.12.28-.24.42-.34m.38.1a.69.69,0,0,0-.36.16,2.35,2.35,0,0,1-.3.24c.18,0,.28,0,.32-.06a.58.58,0,0,1,.08.46c.06-.2.14-.48.26-.8m0-5.43-.12-.28-.14,0,.12.22H114Zm.67,1.09h-.14l-.13.32.15,0Zm.18-.87h-.16l-.1.53h.16Z"/><path class="cls-2" d="M116.73,44.06a2.7,2.7,0,0,1-.27-.77,4.1,4.1,0,0,1-.16-.84,3.06,3.06,0,0,1,.12-.9c.1-.3.21-.59.31-.89Zm.34-1.55h-.16v-.32h.16Zm6.49-.24a.65.65,0,0,1,.12.36c0,.28-.18.54-.57.79a1.72,1.72,0,0,1-.9.3,2.87,2.87,0,0,1-1.14-.36c-.95,1.08-1.73,1.6-2.34,1.6h-.5a1.3,1.3,0,0,1-.88-.3,1.51,1.51,0,0,0-.32-.38l.22,0a2.43,2.43,0,0,1,.36,0c.06-.06.1-.2.08-.46q-.12,0-.12.36a.48.48,0,0,0-.24-.08v-.34a.07.07,0,0,0,.06,0l.12-.06a.39.39,0,0,1,.2-.06c.08,0,.1,0,.1,0a.06.06,0,0,1,0,0,.07.07,0,0,0,0,.06.07.07,0,0,0,0,0c.12-.12.14-.2.08-.28s-.08,0,0,0a.22.22,0,0,1,.16,0,.17.17,0,0,1,.12-.06l.12-.06c-.26-.15-.48-.27-.66-.35a2.13,2.13,0,0,1,.36-.56,1.24,1.24,0,0,0-.4-.3l-.3.26a.38.38,0,0,0-.06-.26c-.06,0-.1.08-.1.14a2.16,2.16,0,0,0-.08-.42,2.18,2.18,0,0,1-.08-.52.27.27,0,0,1,.06-.2.2.2,0,0,0,.12-.19.3.3,0,0,0,.08.23,1.76,1.76,0,0,0,.28-.55.24.24,0,0,0,.08.18.82.82,0,0,1,0-.14.13.13,0,0,0,0-.12.46.46,0,0,0-.14-.16c.06,0,.18.2.34.52a.07.07,0,0,0,.08-.08c0-.06,0-.1-.06-.14a.69.69,0,0,1,.48-.12s.08,0,.08-.18a.31.31,0,0,0-.12-.24l-.2-.12a.38.38,0,0,0-.16.26.48.48,0,0,0-.14-.06c-.06,0-.1,0-.08-.08a.91.91,0,0,0-.06-.22l-.16.18h-.32c0-.08.08-.2.24-.34,0,.12,0,.22.08.26a8.43,8.43,0,0,0,.78-.6,1.14,1.14,0,0,0-.22-.32,4,4,0,0,1,1.85-.95h.48a.58.58,0,0,1-.18.2h0s0,0,0,0a.71.71,0,0,0,.12,0,1.59,1.59,0,0,0,.46-.18,1.72,1.72,0,0,1,.47-.18.92.92,0,0,1,.74.36,1.34,1.34,0,0,1,.24.81,12.42,12.42,0,0,1-.4,2.29,3.49,3.49,0,0,1-.24.6,1.88,1.88,0,0,0-.18.5c0,.3.28.44.84.44a1.32,1.32,0,0,0,.64-.16c.08-.12.32-.32.65-.66m-6.13,1.33h-.16v-.24h.16Zm.1-1.67h-.16v.32h.16Zm.36-.84-.1-.09-.22.21.08.1Zm-.1.56h-.14v.24h.14Zm.38,2.33H118v.24h.16Zm2.73-5.37h-.68c-.28,0-.62.23-1,.69a12.41,12.41,0,0,1-.83.94.37.37,0,0,1,.2.1c-.2,1.09-.3,1.67-.3,1.79a2.84,2.84,0,0,0,.22,1.1.88.88,0,0,0,.81.65,1.27,1.27,0,0,0,.66-.28,2,2,0,0,0,.64-.77,2.46,2.46,0,0,1-.64-1.2.24.24,0,0,1,.06-.18c.12,0,.16,0,.16.14s0-.08,0-.18a.37.37,0,0,1,0-.18s0,0,0,.1,0,0-.12,0-.2-.12-.2-.35a.92.92,0,0,1,.1-.46,3.69,3.69,0,0,0,.34.54,9.71,9.71,0,0,1-.12-1.2.38.38,0,0,1,0-.16,1.09,1.09,0,0,1,.34-.6,5.33,5.33,0,0,0,.44-.53m-.32,2.84-.12-.35-.14,0,.12.3Z"/><path class="cls-1" d="M35.46,24.53a4.33,4.33,0,0,1,2.55.34l-4.68-8.58L39.6,7.71H33.45l-5.63,8.14h-.08V.6H22.16V29.49h5.58V23.14l2-2.59,3.12,6a3.45,3.45,0,0,1,2.61-2"/><path d="M33.15,32.06c.64,2.58,2.81,4.26,4.88,3.76s3.22-3,2.57-5.58S37.79,26,35.72,26.48s-3.19,3-2.57,5.58"/><path class="cls-1" d="M134.43,2.38a4.29,4.29,0,1,0,4.29,4.29,4.29,4.29,0,0,0-4.29-4.29m0,8.19a3.9,3.9,0,1,1,3.9-3.9,3.91,3.91,0,0,1-3.9,3.9m1.65-2.18V7.92a1.35,1.35,0,0,0-.2-.75,1.12,1.12,0,0,0-.67-.42,1.24,1.24,0,0,0,.65-.45,1.2,1.2,0,0,0,.23-.71,1.23,1.23,0,0,0-.43-1,1.9,1.9,0,0,0-1.23-.35h-1.69v5h.41V6.94h1.4a1.25,1.25,0,0,1,.83.26,1,1,0,0,1,.29.73v.45a2.42,2.42,0,0,0,.05.47.73.73,0,0,0,.18.34h.42V9.11a.58.58,0,0,1-.18-.3,1.33,1.33,0,0,1-.06-.42m-1.7-1.8h-1.23v-2h1.28a1.46,1.46,0,0,1,.94.26,1,1,0,0,1,.31.76,1,1,0,0,1-.31.74,1.5,1.5,0,0,1-1,.27"/></g></g></svg>